<svg width="91" height="91" viewBox="0 0 91 91" fill="none" xmlns="http://www.w3.org/2000/svg">
<path d="M44.9137 46.9854C46.4263 46.9854 47.6526 45.7592 47.6526 44.2465C47.6526 42.7339 46.4263 41.5076 44.9137 41.5076C43.401 41.5076 42.1748 42.7339 42.1748 44.2465C42.1748 45.7592 43.401 46.9854 44.9137 46.9854Z" fill="white"/>
<path d="M35.3561 50.4601C36.8687 50.4601 38.095 49.2338 38.095 47.7212C38.095 46.2085 36.8687 44.9823 35.3561 44.9823C33.8434 44.9823 32.6172 46.2085 32.6172 47.7212C32.6172 49.2338 33.8434 50.4601 35.3561 50.4601Z" fill="white"/>
<path d="M54.4713 43.5108C55.984 43.5108 57.2102 42.2846 57.2102 40.7719C57.2102 39.2593 55.984 38.033 54.4713 38.033C52.9587 38.033 51.7324 39.2593 51.7324 40.7719C51.7324 42.2846 52.9587 43.5108 54.4713 43.5108Z" fill="white"/>
<path d="M48.1295 55.8064C49.6422 55.8064 50.8684 54.5801 50.8684 53.0675C50.8684 51.5549 49.6422 50.3286 48.1295 50.3286C46.6169 50.3286 45.3906 51.5549 45.3906 53.0675C45.3906 54.5801 46.6169 55.8064 48.1295 55.8064Z" fill="white"/>
<path d="M38.5714 59.291C40.0841 59.291 41.3103 58.0648 41.3103 56.5521C41.3103 55.0395 40.0841 53.8132 38.5714 53.8132C37.0588 53.8132 35.8325 55.0395 35.8325 56.5521C35.8325 58.0648 37.0588 59.291 38.5714 59.291Z" fill="white"/>
<path d="M57.6871 52.3318C59.1998 52.3318 60.426 51.1055 60.426 49.5929C60.426 48.0802 59.1998 46.854 57.6871 46.854C56.1745 46.854 54.9482 48.0802 54.9482 49.5929C54.9482 51.1055 56.1745 52.3318 57.6871 52.3318Z" fill="white"/>
<path d="M73.1757 52.4712L64.0012 27.2677C64.0012 27.2667 64.0012 27.2657 64.0012 27.2647C64.0012 27.2637 64.0002 27.2627 63.9993 27.2617L62.4451 22.9916C62.1385 22.1493 61.5202 21.4753 60.7038 21.095C59.8874 20.7126 58.9725 20.6728 58.1312 20.9795L50.948 23.5939L49.9036 20.7256C49.7164 20.2089 49.142 19.9401 48.6282 20.1312C48.1105 20.3184 47.8447 20.8909 48.0329 21.4076L49.0762 24.2749L28.8895 31.6224L27.8461 28.7551C27.658 28.2384 27.0855 27.9725 26.5698 28.1597C26.0531 28.3479 25.7863 28.9194 25.9744 29.4361L27.0178 32.3044L19.8346 34.9188C18.0903 35.554 17.1873 37.4895 17.8225 39.2327L28.552 68.7124C29.0488 70.0773 30.3431 70.9276 31.719 70.9276C32.1003 70.9276 32.4876 70.8629 32.8659 70.7245L71.1626 56.7861C72.9079 56.1509 73.8099 54.2155 73.1757 52.4712ZM19.744 37.5024C19.9003 37.1679 20.1741 36.915 20.5166 36.7905L28.6337 33.8356C28.6347 33.8356 28.6347 33.8356 28.6357 33.8356C28.6366 33.8356 28.6366 33.8346 28.6366 33.8346L58.8122 22.8512C58.9635 22.7954 59.1208 22.7686 59.2781 22.7686C59.4773 22.7686 59.6764 22.8124 59.8635 22.9C60.1981 23.0553 60.4509 23.3301 60.5754 23.6726L61.79 27.0098L20.9098 41.889L19.6952 38.5518C19.5707 38.2093 19.5877 37.8369 19.744 37.5024ZM70.4826 54.9144L32.1869 68.8527C31.4741 69.1076 30.6836 68.7432 30.4237 68.0314L21.5898 43.7597L62.47 28.8805L71.3049 53.1522C71.5638 53.865 71.1954 54.6555 70.4826 54.9144Z" fill="white"/>
<path d="M84.4367 22.222C84.0893 22.222 83.7517 22.0398 83.5695 21.7162C77.7045 11.3411 66.6663 4.89659 54.761 4.89659C44.5979 4.89659 35.1447 9.47136 28.8257 17.4481C28.4842 17.8792 27.8589 17.9499 27.4269 17.6104C26.9958 17.2689 26.9231 16.6426 27.2646 16.2115C33.9639 7.75495 43.9856 2.9054 54.761 2.9054C67.3831 2.9054 79.0854 9.73818 85.3019 20.7365C85.5727 21.2154 85.4044 21.8227 84.9256 22.0935C84.7712 22.1811 84.603 22.222 84.4367 22.222Z" fill="white"/>
<path d="M34.3225 88.6482C23.5471 88.6482 13.5255 83.7986 6.82609 75.343C6.4846 74.9119 6.55728 74.2857 6.98837 73.9442C7.41847 73.6027 8.0447 73.6744 8.38719 74.1065C14.7062 82.0832 24.1594 86.658 34.3225 86.658C46.2268 86.658 57.265 80.2125 63.1311 69.8374C63.4019 69.3585 64.0102 69.1912 64.4871 69.461C64.965 69.7308 65.1342 70.3391 64.8634 70.817C58.6459 81.8154 46.9437 88.6482 34.3225 88.6482Z" fill="white"/>
<path d="M89.0442 26.7021H88.0934V25.7504C88.0934 25.2008 87.6483 24.7548 87.0978 24.7548C86.5472 24.7548 86.1022 25.2008 86.1022 25.7504V26.7021H85.1504C84.5998 26.7021 84.1548 27.1482 84.1548 27.6977C84.1548 28.2473 84.5998 28.6933 85.1504 28.6933H86.1022V29.6451C86.1022 30.1947 86.5472 30.6407 87.0978 30.6407C87.6483 30.6407 88.0934 30.1947 88.0934 29.6451V28.6933H89.0442C89.5947 28.6933 90.0398 28.2473 90.0398 27.6977C90.0398 27.1482 89.5947 26.7021 89.0442 26.7021Z" fill="white"/>
<path d="M27.5267 6.70258C26.7242 6.70258 25.9705 6.38996 25.4031 5.82247C24.8356 5.25597 24.5229 4.50131 24.5229 3.69886C24.5229 2.89641 24.8356 2.14274 25.4031 1.57525C26.5739 0.404431 28.4795 0.405427 29.6503 1.57525C30.8211 2.74707 30.8211 4.65165 29.6503 5.82247C29.0828 6.38996 28.3291 6.70258 27.5267 6.70258ZM27.5267 2.68833C27.2678 2.68833 27.008 2.78689 26.8108 2.98402C26.6197 3.17418 26.5141 3.42905 26.5141 3.69886C26.5141 3.96867 26.6197 4.22354 26.8108 4.4137C27.2051 4.80796 27.8472 4.80895 28.2425 4.4137C28.6368 4.01944 28.6368 3.37728 28.2425 2.98203C28.0444 2.78689 27.7855 2.68833 27.5267 2.68833Z" fill="white"/>
<path d="M16.567 64.2421C16.3499 64.2421 16.1319 64.1724 15.9487 64.0271C7.49311 57.3277 2.64355 47.306 2.64355 36.5297C2.64355 23.9085 9.47634 12.2052 20.4747 5.98775C20.9546 5.71695 21.5609 5.8862 21.8317 6.36408C22.1015 6.84297 21.9332 7.45028 21.4554 7.72108C11.0802 13.5861 4.63475 24.6253 4.63475 36.5297C4.63475 46.6937 9.20951 56.1469 17.1852 62.465C17.6163 62.8075 17.689 63.4337 17.3475 63.8638C17.1514 64.1127 16.8607 64.2421 16.567 64.2421Z" fill="white"/>
<path d="M74.4627 84.6797C74.169 84.6797 73.8773 84.5503 73.6811 84.3024C73.3396 83.8713 73.4123 83.2451 73.8434 82.9036C81.8201 76.5845 86.3949 67.1323 86.3949 56.9693C86.3949 45.0639 79.9494 34.0248 69.5743 28.1607C69.0964 27.8899 68.9272 27.2826 69.198 26.8037C69.4678 26.3248 70.0771 26.1565 70.554 26.4274C81.5523 32.6449 88.3851 44.3471 88.3851 56.9693C88.3851 67.7436 83.5355 77.7663 75.0799 84.4657C74.8977 84.61 74.6787 84.6797 74.4627 84.6797Z" fill="white"/>
<path d="M68.1558 90.3018C67.3523 90.3018 66.5987 89.9902 66.0312 89.4217C64.8614 88.2519 64.8614 86.3463 66.0312 85.1745C67.204 84.0037 69.1066 84.0047 70.2794 85.1735L70.2804 85.1745C71.4502 86.3463 71.4502 88.2519 70.2794 89.4217C69.7119 89.9902 68.9582 90.3018 68.1558 90.3018ZM68.1558 86.2876C67.8959 86.2876 67.6371 86.3861 67.4399 86.5833C67.0457 86.9775 67.0457 87.6197 67.4399 88.0149C67.8233 88.3982 68.4883 88.3982 68.8716 88.0149C69.2659 87.6207 69.2659 86.9795 68.8716 86.5843C68.6745 86.3861 68.4146 86.2876 68.1558 86.2876Z" fill="white"/>
<path d="M5.84934 67.9158H4.89854V66.964C4.89854 66.4135 4.45251 65.9684 3.90295 65.9684C3.35338 65.9684 2.90735 66.4135 2.90735 66.964V67.9158H1.95556C1.40599 67.9158 0.959961 68.3609 0.959961 68.9114C0.959961 69.462 1.40599 69.907 1.95556 69.907H2.90735V70.8578C2.90735 71.4084 3.35338 71.8534 3.90295 71.8534C4.45251 71.8534 4.89854 71.4084 4.89854 70.8578V69.907H5.84934C6.39891 69.907 6.84493 69.462 6.84493 68.9114C6.84493 68.3619 6.39891 67.9158 5.84934 67.9158Z" fill="white"/>
</svg>
