<svg width="207" height="82" viewBox="0 0 207 82" fill="none" xmlns="http://www.w3.org/2000/svg">
<g clip-path="url(#clip0_376_25)">
<path d="M82.4457 64.8641C82.6942 65.2055 83.0146 65.4884 83.3843 65.6928C83.7541 65.8971 84.1642 66.018 84.5857 66.0468C85.0073 66.0757 85.43 66.0119 85.8242 65.8598C86.2184 65.7078 86.5744 65.4712 86.8672 65.1668L93.0196 67.5673L95.3914 64.1875L86.6555 60.9194C86.1111 60.4618 85.4176 60.2197 84.7065 60.2389C83.9953 60.258 83.3159 60.5372 82.797 61.0234C82.2781 61.5097 81.9557 62.1692 81.891 62.877C81.8262 63.5849 82.0236 64.2919 82.4457 64.8641V64.8641Z" fill="#9E616A"/>
<path d="M113.153 51.5532L133.943 47.0398L136.255 64.9264L134.33 73.4728L135.101 86.4608C135.101 86.4608 118.662 94.636 110.519 87.9822C110.519 87.9822 117.064 70.8039 113.27 62.7624L113.153 51.5532Z" fill="#E4E4E4"/>
<path d="M116.754 54.0832L113.154 51.5532C113.154 51.5532 112.941 51.2589 109.94 54.7637C106.94 58.2684 100.853 63.8434 100.853 63.8434L90.7085 60.0423L88.8604 66.8652L100.65 72.355L117.342 61.2165L116.754 54.0832Z" fill="#E4E4E4"/>
<path d="M135.105 93.1657C135.487 92.9854 135.825 92.7235 136.095 92.3986C136.365 92.0737 136.56 91.6937 136.667 91.2852C136.774 90.8768 136.79 90.4498 136.714 90.0346C136.638 89.6193 136.471 89.2257 136.226 88.8816L139.733 83.2891L136.852 80.3311L132.011 88.2981C131.459 88.7473 131.092 89.383 130.978 90.0846C130.865 90.7863 131.013 91.5053 131.394 92.1053C131.775 92.7053 132.364 93.1446 133.048 93.3401C133.732 93.5355 134.464 93.4735 135.105 93.1657Z" fill="#9E616A"/>
<path d="M130.701 50.5634L133.943 47.0398C133.943 47.0398 137.556 45.7826 140.508 52.2789C143.46 58.7753 146.757 71.9524 146.757 71.9524L139.049 86.7885L133.062 84.1158L139.049 71.8476L132.714 62.7623L130.701 50.5634Z" fill="#E4E4E4"/>
<path d="M125.202 45.5728C128.472 43.7865 129.674 39.6895 127.887 36.4219C126.099 33.1542 121.998 31.9533 118.728 33.7396C115.458 35.5258 114.256 39.6228 116.044 42.8905C117.831 46.1581 121.932 47.359 125.202 45.5728Z" fill="#9E616A"/>
<path d="M127.656 33.6264C127.337 32.2874 126.219 31.2306 124.934 30.735C123.649 30.2394 122.218 30.2442 120.86 30.4748C118.606 30.8575 116.501 31.8289 114.426 32.7904L116.025 33.5547L113.819 33.6811L115.524 34.562C115.068 34.9082 114.722 35.3776 114.526 35.9145C114.329 36.4514 114.291 37.0333 114.416 37.5912C114.504 37.9562 114.738 38.3585 115.114 38.3711C115.568 38.3864 115.805 37.8578 116.123 37.5335C116.546 37.1021 117.213 37.0063 117.812 37.0876C118.411 37.1689 118.979 37.3991 119.569 37.5264C120.316 37.6819 121.088 37.6733 121.831 37.5012C122.575 37.3292 123.272 36.9977 123.874 36.5298L126 41.6446C125.98 41.4517 126.005 41.2568 126.073 41.075C126.14 40.8933 126.249 40.7297 126.391 40.597C126.532 40.4643 126.703 40.3661 126.888 40.3101C127.074 40.254 127.271 40.2416 127.462 40.2739C127.653 40.3061 127.835 40.3821 127.992 40.4959C128.149 40.6098 128.278 40.7584 128.368 40.9301C128.458 41.1018 128.507 41.2921 128.511 41.486C128.516 41.6798 128.475 41.8721 128.393 42.0478C129.313 40.6609 130.054 39.0852 130.079 37.4213C130.105 35.7575 129.279 34.0047 127.767 33.3065" fill="#2F2E41"/>
<path d="M102.946 26.8606C102.946 16.216 95.5186 7.58691 86.3567 7.58691C77.1948 7.58691 69.7676 16.216 69.7676 26.8606C69.7676 36.5147 75.8771 44.5107 83.849 45.9152V47.7315C83.849 48.0746 83.9854 48.4037 84.2282 48.6463C84.4711 48.8889 84.8004 49.0253 85.1438 49.0253H87.5695C87.9129 49.0253 88.2423 48.8889 88.4851 48.6463C88.7279 48.4037 88.8643 48.0746 88.8643 47.7315V45.9152C96.8363 44.5107 102.946 36.5147 102.946 26.8606Z" fill="#7052CC"/>
<path d="M83.4504 47.4689C83.9695 46.9819 84.5879 46.6128 85.2632 46.3871C85.9384 46.1614 86.6546 46.0844 87.3625 46.1614C88.0759 46.244 88.7604 46.491 89.3619 46.883C89.9635 47.275 90.4657 47.8012 90.8291 48.4202C91.1925 49.0208 91.4208 49.6932 91.4982 50.3907C91.5755 51.0883 91.5 51.7944 91.277 52.4599C90.8409 53.7871 89.9141 54.8917 88.9638 55.8872C87.9669 56.9316 86.8828 57.8948 85.9456 58.9955C84.4001 60.8212 83.321 62.9943 82.8007 65.3283C82.2804 67.6624 82.3345 70.0877 82.9583 72.3962C83.7806 75.3223 85.4784 77.9273 87.8243 79.862C88.1221 80.1051 88.4288 80.3368 88.7445 80.5569C89.1097 80.8123 89.4555 80.2138 89.0934 79.9606C86.5465 78.1603 84.6643 75.5718 83.7379 72.5953C83.0354 70.2758 82.9455 67.8141 83.477 65.4497C84.0084 63.0852 85.1431 60.8983 86.7708 59.1017C87.7594 58.0111 88.8663 57.0348 89.8546 55.9439C90.8014 54.8988 91.6644 53.7197 92.0343 52.339C92.2215 51.637 92.2679 50.905 92.1708 50.185C92.0737 49.465 91.8351 48.7713 91.4686 48.1439C91.1039 47.5024 90.6104 46.9432 90.0192 46.5012C89.428 46.0592 88.7518 45.7439 88.033 45.5752C86.5869 45.2612 85.0753 45.5227 83.8191 46.3042C83.5113 46.5004 83.224 46.727 82.9617 46.9806C82.6407 47.2895 83.1298 47.7775 83.4504 47.4689V47.4689Z" fill="#3F3D56"/>
<path d="M39.02 18.7896C33.9442 7.13063 21.6944 1.21494 11.6593 5.57657C1.62425 9.93821 -2.39593 22.9255 2.67994 34.5845C7.28352 45.1587 17.7882 51.0083 27.1896 48.7514L28.0557 50.7408C28.2193 51.1166 28.5256 51.4121 28.9073 51.5623C29.289 51.7124 29.7147 51.705 30.0908 51.5415L32.7477 50.3867C33.1238 50.2232 33.4196 49.9171 33.5698 49.5358C33.7201 49.1544 33.7126 48.729 33.549 48.3532L32.6828 46.3638C40.7448 41.0304 43.6236 29.3638 39.02 18.7896Z" fill="#7052CC"/>
<path d="M27.443 50.5838C27.7728 49.8246 28.2585 49.1432 28.8687 48.5836C29.4789 48.0239 30.2 47.5987 30.9852 47.3353C31.7562 47.0758 32.5747 46.9879 33.3833 47.0777C34.1918 47.1675 34.971 47.4327 35.6663 47.8549C36.3825 48.2789 37.0001 48.8505 37.4778 49.5317C37.9555 50.213 38.2823 50.9881 38.4365 51.8055C38.7908 53.6999 38.216 55.6294 37.5628 57.3931C36.8781 59.2419 36.0248 61.0374 35.5487 62.9573C34.8861 65.6557 34.8727 68.4725 35.5096 71.1771C36.1465 73.8817 37.4156 76.397 39.2128 78.5171C41.4764 81.138 44.4577 83.0404 47.7896 83.9899C48.1983 84.105 48.6113 84.2033 49.0275 84.2875C49.4618 84.3753 49.6476 83.7098 49.2112 83.6215C45.7445 82.9085 42.5852 81.1367 40.1703 78.5513C37.6103 75.7858 36.0638 72.2352 35.7832 68.4787C35.6329 66.5754 35.8075 64.6605 36.2995 62.8157C36.8247 60.869 37.7137 59.0464 38.3839 57.1497C39.0235 55.3398 39.4767 53.3962 39.0749 51.4809C38.7055 49.7945 37.6813 48.3235 36.2273 47.391C35.5305 46.9319 34.7492 46.6158 33.929 46.461C33.1088 46.3061 32.266 46.3157 31.4496 46.4892C29.7822 46.8666 28.3214 47.8645 27.3643 49.2799C27.1315 49.6329 26.9346 50.0081 26.7765 50.4002C26.6065 50.8104 27.275 50.9893 27.443 50.5838L27.443 50.5838Z" fill="#3F3D56"/>
<path d="M164.684 70.4333H176.89L181.99 75.5293L183.514 96.5938L165.079 99.5581L159.157 79.4595L162.382 70.9177L164.684 70.4333Z" fill="#E4E4E4"/>
<path d="M160.294 79.6605L141.501 72.5955L141.012 69.675L152.864 59.6545L156.808 62.6109L149.659 70.4333L162.381 70.9177L160.294 79.6605Z" fill="#E4E4E4"/>
<path d="M155.143 63.7532C156.821 63.7532 158.182 62.3937 158.182 60.7167C158.182 59.0397 156.821 57.6802 155.143 57.6802C153.465 57.6802 152.104 59.0397 152.104 60.7167C152.104 62.3937 153.465 63.7532 155.143 63.7532Z" fill="#FFB6B6"/>
<path d="M162.191 64.542L163.565 58.3548C163.805 57.2651 164.259 56.2335 164.899 55.319C165.539 54.4045 166.353 53.6249 167.294 53.025C168.236 52.425 169.287 52.0164 170.387 51.8224C171.487 51.6284 172.614 51.6529 173.704 51.8945C174.795 52.1361 175.827 52.5901 176.741 53.2304C177.656 53.8708 178.435 54.685 179.035 55.6264C179.634 56.5679 180.042 57.6182 180.235 58.7174C180.429 59.8165 180.403 60.9428 180.16 62.032L178.787 68.2192C178.721 68.5144 178.541 68.7715 178.285 68.9339C178.03 69.0964 177.721 69.1511 177.425 69.086L163.059 65.9027C162.763 65.8368 162.506 65.6566 162.344 65.4015C162.181 65.1464 162.126 64.8373 162.191 64.542Z" fill="#2F2E41"/>
<path d="M171.652 66.8741C174.957 65.9171 176.861 62.4639 175.903 59.1611C174.945 55.8583 171.489 53.9566 168.183 54.9137C164.878 55.8707 162.975 59.3239 163.933 62.6267C164.89 65.9295 168.346 67.8312 171.652 66.8741Z" fill="#FFB6B6"/>
<path d="M161.491 58.4147C161.879 56.6764 162.941 55.1627 164.445 54.2059C165.948 53.249 167.77 52.9271 169.511 53.3107L170.749 53.5852C172.489 53.9727 174.004 55.034 174.962 56.5362C175.919 58.0384 176.241 59.8588 175.858 61.598L175.83 61.7218L173.213 61.1418L172.874 58.4464L172.142 60.9044L170.789 60.6047L170.618 59.2448L170.248 60.485L161.464 58.5385L161.491 58.4147Z" fill="#2F2E41"/>
<path d="M167.783 67.6796C167.697 67.4861 167.668 67.2723 167.698 67.0628C167.728 66.8533 167.817 66.6566 167.955 66.4953C169.821 64.2919 172.681 60.0904 170.873 56.7077L170.743 56.4646L177.824 58.0336L175.466 68.6558L168.782 68.3644C168.714 68.3615 168.647 68.3527 168.581 68.3381C168.405 68.2992 168.241 68.2192 168.103 68.1048C167.964 67.9903 167.855 67.8446 167.783 67.6796Z" fill="#2F2E41"/>
<path d="M176.404 70.561L196.284 73.3853L197.395 76.1304L188 88.4806L183.508 86.4496L188.789 77.2639L176.264 79.5483L176.404 70.561Z" fill="#E4E4E4"/>
<path d="M206.167 30.5206C206.167 17.8063 197.295 7.49927 186.352 7.49927C175.408 7.49927 166.537 17.8063 166.537 30.5206C166.537 42.0519 173.835 51.6027 183.357 53.2803V55.4497C183.357 55.8596 183.52 56.2526 183.81 56.5424C184.1 56.8322 184.493 56.9951 184.903 56.9951H187.801C188.211 56.9951 188.604 56.8322 188.894 56.5424C189.184 56.2526 189.347 55.8596 189.347 55.4497V53.2803C198.869 51.6027 206.167 42.0519 206.167 30.5206Z" fill="#7052CC"/>
<path d="M182.833 55.0888C183.462 54.4979 184.212 54.0507 185.031 53.7781C185.85 53.5055 186.719 53.414 187.577 53.5099C188.42 53.6092 189.229 53.8987 189.943 54.3568C190.658 54.8148 191.258 55.4292 191.7 56.1535C192.149 56.8683 192.438 57.6719 192.547 58.509C192.656 59.346 192.582 60.1967 192.33 61.0025C191.841 62.5841 190.768 63.9084 189.65 65.0954C188.456 66.3617 187.149 67.5196 186.008 68.8353C184.149 70.9948 182.842 73.5732 182.2 76.3489C181.558 79.1247 181.601 82.0146 182.324 84.7703C183.291 88.3122 185.335 91.4665 188.174 93.7979C188.518 94.0783 188.873 94.3456 189.238 94.6C189.603 94.8552 189.949 94.2568 189.587 94.0037C186.547 91.8569 184.296 88.7734 183.178 85.2258C182.329 82.4566 182.208 79.5156 182.828 76.6865C183.448 73.8573 184.788 71.2356 186.717 69.0744C187.89 67.7664 189.211 66.6012 190.397 65.3059C191.532 64.0654 192.575 62.6728 193.042 61.0336C193.277 60.2057 193.345 59.3395 193.243 58.4851C193.14 57.6307 192.869 56.8051 192.446 56.0559C192.024 55.2899 191.448 54.6192 190.754 54.0859C190.06 53.5526 189.264 53.1683 188.415 52.957C186.689 52.5607 184.876 52.861 183.371 53.7928C183.002 54.0261 182.658 54.2967 182.344 54.6004C182.024 54.9098 182.513 55.3978 182.833 55.0888Z" fill="#3F3D56"/>
<path d="M153.561 61.5691C153.401 61.8209 153.015 61.7843 152.798 61.6269C152.497 61.4083 152.595 60.9874 152.802 60.7386C153.461 59.948 154.551 60.7827 154.698 61.5678C154.753 61.9506 154.694 62.3411 154.528 62.6907C154.363 63.0403 154.099 63.3337 153.768 63.5346C153.016 63.9798 152.039 63.7566 151.393 63.2237C150.044 62.112 150.411 59.8863 151.909 59.0821C152.865 58.5688 154.074 58.7941 155.016 59.224C156.076 59.708 156.988 60.4498 157.968 61.0681C160.119 62.4136 162.553 63.2438 165.078 63.494C165.52 63.539 165.517 62.8481 165.078 62.8033C163.679 62.6588 162.305 62.3282 160.993 61.8204C159.695 61.2947 158.463 60.619 157.322 59.8071C156.167 59.0165 154.961 58.2485 153.533 58.1179C152.956 58.0506 152.372 58.1371 151.84 58.3684C151.308 58.5998 150.846 58.9679 150.503 59.4353C150.197 59.8535 149.992 60.3367 149.905 60.8471C149.817 61.3576 149.849 61.8813 149.998 62.3773C150.178 62.896 150.491 63.3579 150.908 63.716C151.324 64.0741 151.828 64.3156 152.368 64.4159C152.888 64.5141 153.425 64.4476 153.905 64.2259C154.386 64.0042 154.785 63.6382 155.047 63.1791C155.573 62.2704 155.556 61.0499 154.761 60.2965C154.534 60.0653 154.249 59.8986 153.936 59.8135C153.622 59.7283 153.292 59.7278 152.979 59.812C152.69 59.9095 152.436 60.089 152.247 60.3285C152.059 60.5681 151.944 60.8572 151.918 61.1607C151.841 62.3402 153.517 62.93 154.158 61.9177C154.396 61.5409 153.798 61.194 153.561 61.5691Z" fill="#3F3D56"/>
<path d="M53.2912 7.521L52.3783 8.66539L49.1494 6.75692L50.0623 5.6123L53.2912 7.521Z" fill="#E4E4E4"/>
<path d="M56.6601 12.4382L57.4665 13.6406L54.0745 15.3265L53.2681 14.1241L56.6601 12.4382Z" fill="#E4E4E4"/>
<path d="M60.1716 7.21118L61.783 7.26804L61.6227 10.637L60.0112 10.5801L60.1716 7.21118Z" fill="#E4E4E4"/>
<path d="M142.918 19.4922L142.005 20.6366L138.776 18.7281L139.689 17.5835L142.918 19.4922Z" fill="#E4E4E4"/>
<path d="M146.288 24.4094L147.094 25.6118L143.702 27.2977L142.896 26.0953L146.288 24.4094Z" fill="#E4E4E4"/>
<path d="M149.799 19.1821L151.41 19.239L151.25 22.6079L149.638 22.5511L149.799 19.1821Z" fill="#E4E4E4"/>
<path d="M115.5 2.68653L114.587 3.83092L111.358 1.92245L112.271 0.777832L115.5 2.68653Z" fill="#E4E4E4"/>
<path d="M118.869 7.60376L119.675 8.80616L116.283 10.492L115.477 9.28961L118.869 7.60376Z" fill="#E4E4E4"/>
<path d="M122.381 2.37671L123.992 2.43357L123.832 5.80251L122.22 5.74565L122.381 2.37671Z" fill="#E4E4E4"/>
<path d="M51.0981 84.228C50.9649 84.1906 50.8286 84.1652 50.6908 84.1522L52.4502 69.7637L58.4197 57.1323C58.7953 56.3378 58.8553 55.4304 58.5876 54.5934C58.32 53.7563 57.7446 53.0518 56.9776 52.622C56.2105 52.1921 55.3089 52.0689 54.4545 52.2771C53.6001 52.4854 52.8565 53.0097 52.3737 53.7442V53.7442C50.8091 56.1244 49.6257 58.7338 48.8659 61.4784L46.3579 70.5388L48.1918 86.0765C48.1215 86.5144 48.1793 86.9634 48.3583 87.3692C48.5373 87.7751 48.8299 88.1207 49.2009 88.3643C49.5718 88.6079 50.0053 88.7393 50.4492 88.7425C50.8931 88.7458 51.3285 88.6208 51.703 88.3826C52.0775 88.1444 52.3751 87.8032 52.56 87.4C52.745 86.9967 52.8094 86.5487 52.7455 86.1098C52.6816 85.6709 52.4921 85.2598 52.1998 84.9259C51.9076 84.592 51.525 84.3497 51.0981 84.228H51.0981Z" fill="#FFB6B6"/>
<path d="M54.7222 70.9814L47.1802 62.3608L50.9165 53.58C51.4057 52.4302 52.3253 51.5169 53.4791 51.0351C54.6328 50.5534 55.9293 50.5412 57.092 51.0013C58.2546 51.4613 59.1912 52.3572 59.7019 53.4976C60.2127 54.6381 60.2571 55.9328 59.8257 57.1055L54.7222 70.9814Z" fill="#2F2E41"/>
<path d="M67.2595 43.4995C69.074 40.1829 67.8541 36.0245 64.5348 34.2115C61.2154 32.3985 57.0536 33.6174 55.2391 36.934C53.4246 40.2506 54.6445 44.4089 57.9638 46.222C61.2832 48.035 65.445 46.8161 67.2595 43.4995Z" fill="#FFB6B6"/>
<path d="M62.3947 31.9019H57.97C55.0693 31.9019 52.7178 34.5451 52.7178 37.8058L52.9225 45.7146C56.0568 46.1042 59.1225 46.9235 62.0329 48.1493L62.4459 46.3871L63.2605 48.7079C63.9851 49.0586 64.7034 49.4422 65.4156 49.8585C64.5844 45.9561 64.2422 42.0628 64.813 39.0385H66.3116V37.3998L66.8203 39.0385H69.5373V39.0384C69.5373 38.1013 69.3525 37.1732 68.9936 36.3074C68.6346 35.4415 68.1085 34.6548 67.4453 33.9921C66.782 33.3294 65.9946 32.8037 65.1281 32.4451C64.2615 32.0864 63.3327 31.9019 62.3947 31.9019Z" fill="#2F2E41"/>
<path d="M76.8219 127.5L76.1809 127.654L75.6429 117.656L71.726 87.7285L67.2332 76.3329L69.422 68.3906C69.422 68.3906 71.9564 62.8655 65.6203 58.6065L60.5515 50.0887C57.0501 47.8012 54.1692 49.2969 52.6336 53.1851C51.2955 56.5729 50.2568 60.8588 50.8745 65.2827C52.2584 75.1924 53.4089 76.3329 53.4089 76.3329C53.4089 76.3329 44.7688 85.8868 46.612 98.0881L45.5848 129.679L44.6449 129.64L44.542 132.15L52.7527 132.486L52.8557 129.977L52.1746 129.949L55.137 117.426L59.5147 100.851L67.118 121.109L69.6754 129.22L68.8328 129.422L69.4213 131.864L77.4104 129.941L76.8219 127.5Z" fill="#2F2E41"/>
<path d="M82.4645 70.772C82.3715 70.8744 82.2879 70.9849 82.2147 71.1022L70.1177 63.1007L61.4752 52.1208C60.9315 51.4301 60.146 50.971 59.2769 50.8362C58.4078 50.7015 57.52 50.901 56.7924 51.3946C56.0648 51.8882 55.5516 52.6391 55.3563 53.4959C55.161 54.3527 55.2982 55.2516 55.7401 56.0114C57.1722 58.4734 58.9798 60.6972 61.0978 62.6027L68.0896 68.8928L82.8211 74.1958C83.1818 74.4544 83.6095 74.6033 84.0529 74.6246C84.4963 74.6459 84.9365 74.5388 85.3203 74.3161C85.7042 74.0933 86.0155 73.7645 86.2168 73.3692C86.418 72.9738 86.5006 72.5288 86.4547 72.0876C86.4088 71.6465 86.2362 71.228 85.9578 70.8825C85.6794 70.537 85.307 70.2793 84.8855 70.1403C84.4639 70.0013 84.0112 69.987 83.5817 70.099C83.1521 70.2111 82.7642 70.4448 82.4645 70.772H82.4645Z" fill="#FFB6B6"/>
<path d="M72.2235 61.6135L61.135 64.5034L54.9423 57.2403C54.1314 56.2892 53.7246 55.0592 53.8087 53.8126C53.8928 52.566 54.4613 51.4016 55.3926 50.5679C56.324 49.7342 57.5446 49.2973 58.794 49.3503C60.0433 49.4033 61.2224 49.9421 62.0797 50.8516L72.2235 61.6135Z" fill="#2F2E41"/>
</g>
<defs>
<clipPath id="clip0_376_25">
<rect width="205.683" height="162.444" fill="white" transform="translate(0.483398 0.777832)"/>
</clipPath>
</defs>
</svg>
