<svg width="107" height="104" viewBox="0 0 107 104" fill="none" xmlns="http://www.w3.org/2000/svg">
<g clip-path="url(#clip0_26_2593)">
<path d="M67.7931 23.3894H39.2307C38.5798 23.3902 37.9558 23.6504 37.4956 24.113C37.0353 24.5756 36.7764 25.2028 36.7756 25.857V89.6629L36.4483 89.7633L29.4415 91.92C29.1094 92.0218 28.7507 91.987 28.4442 91.8232C28.1376 91.6594 27.9083 91.3801 27.8064 91.0465L6.96436 22.6178C6.86293 22.284 6.8975 21.9234 7.06047 21.6153C7.22344 21.3071 7.50147 21.0766 7.83347 20.9743L18.631 17.6512L49.9332 8.02069L60.7306 4.69755C60.895 4.64672 61.0677 4.62896 61.2388 4.64528C61.41 4.6616 61.5762 4.71169 61.7281 4.79268C61.88 4.87366 62.0145 4.98396 62.1239 5.11725C62.2333 5.25054 62.3155 5.40421 62.3658 5.56946L67.6933 23.0604L67.7931 23.3894Z" fill="#F2F2F2"/>
<path d="M74.0258 23.0604L67.605 1.97983C67.4981 1.62859 67.3235 1.30195 67.091 1.01857C66.8586 0.735199 66.5728 0.500644 66.2501 0.328311C65.9274 0.155978 65.5741 0.0492435 65.2104 0.0142109C64.8466 -0.0208217 64.4796 0.0165341 64.1302 0.12414L48.9496 4.79463L17.649 14.4268L2.46842 19.0989C1.76321 19.3166 1.17273 19.8066 0.826583 20.4614C0.48044 21.1162 0.406914 21.8823 0.622148 22.5915L22.5673 94.6361C22.7422 95.2086 23.095 95.7097 23.5739 96.0659C24.0529 96.4221 24.6329 96.6146 25.2287 96.6152C25.5044 96.6153 25.7786 96.5737 26.0421 96.4918L36.4484 93.2904L36.7757 93.1884V92.8446L36.4484 92.9449L25.9455 96.1776C25.3231 96.3683 24.6507 96.3031 24.076 95.9962C23.5013 95.6894 23.0712 95.1659 22.88 94.5407L0.936466 22.4944C0.841714 22.1847 0.808691 21.8591 0.839285 21.5365C0.86988 21.2139 0.963489 20.9004 1.11476 20.6142C1.26603 20.328 1.47198 20.0746 1.72083 19.8685C1.96968 19.6624 2.25653 19.5077 2.56496 19.4131L17.7455 14.741L49.0462 5.11049L64.2268 0.43836C64.4608 0.3666 64.704 0.330011 64.9486 0.329782C65.4735 0.330967 65.9842 0.501064 66.406 0.815161C66.8278 1.12926 67.1384 1.57085 67.2924 2.07525L73.6838 23.0604L73.7853 23.3894H74.1257L74.0258 23.0604Z" fill="#3F3D56"/>
<path d="M20.5792 21.028C20.2638 21.0278 19.9567 20.926 19.703 20.7375C19.4494 20.549 19.2625 20.2837 19.1698 19.9806L17.0616 13.0593C17.005 12.8734 16.9853 12.6781 17.0038 12.4845C17.0222 12.291 17.0785 12.103 17.1692 11.9313C17.26 11.7596 17.3835 11.6075 17.5327 11.4838C17.682 11.36 17.854 11.2671 18.039 11.2102L46.8353 2.34895C47.2088 2.23438 47.6124 2.27345 47.9573 2.45761C48.3022 2.64176 48.5604 2.95595 48.6751 3.3312L50.7832 10.2526C50.8971 10.6281 50.8582 11.0336 50.675 11.3803C50.4918 11.727 50.1793 11.9865 49.806 12.1018L21.0096 20.963C20.8701 21.0061 20.7251 21.028 20.5792 21.028Z" fill="#7052CC"/>
<path d="M31.6231 7.39565C33.4309 7.39565 34.8965 5.92257 34.8965 4.10542C34.8965 2.28827 33.4309 0.815186 31.6231 0.815186C29.8152 0.815186 28.3496 2.28827 28.3496 4.10542C28.3496 5.92257 29.8152 7.39565 31.6231 7.39565Z" fill="#7052CC"/>
<path d="M31.6226 6.18893C32.7674 6.18893 33.6955 5.25612 33.6955 4.10545C33.6955 2.95478 32.7674 2.02197 31.6226 2.02197C30.4778 2.02197 29.5498 2.95478 29.5498 4.10545C29.5498 5.25612 30.4778 6.18893 31.6226 6.18893Z" fill="white"/>
<path d="M99.1348 95.7745H43.8136C43.4447 95.7741 43.0911 95.6266 42.8303 95.3645C42.5695 95.1023 42.4228 94.7469 42.4224 94.3762V27.7489C42.4228 27.3782 42.5695 27.0228 42.8303 26.7606C43.0911 26.4985 43.4447 26.351 43.8136 26.3506H99.1348C99.5036 26.351 99.8572 26.4985 100.118 26.7606C100.379 27.0228 100.526 27.3782 100.526 27.7489V94.3762C100.526 94.7469 100.379 95.1023 100.118 95.3645C99.8572 95.6266 99.5036 95.7741 99.1348 95.7745Z" fill="#E6E6E6"/>
<path d="M73.6837 23.0603H39.2307C38.493 23.0614 37.7859 23.3563 37.2644 23.8806C36.7428 24.4049 36.4493 25.1156 36.4482 25.857V92.9449L36.7756 92.8445V25.857C36.7764 25.2028 37.0353 24.5756 37.4955 24.113C37.9558 23.6504 38.5798 23.3901 39.2307 23.3893H73.7851L73.6837 23.0603ZM103.717 23.0603H39.2307C38.493 23.0614 37.7859 23.3563 37.2644 23.8806C36.7428 24.4049 36.4493 25.1156 36.4482 25.857V101.203C36.4493 101.945 36.7428 102.656 37.2644 103.18C37.7859 103.704 38.493 103.999 39.2307 104H103.717C104.455 103.999 105.162 103.704 105.684 103.18C106.205 102.656 106.499 101.945 106.5 101.203V25.857C106.499 25.1156 106.205 24.4049 105.684 23.8806C105.162 23.3563 104.455 23.0614 103.717 23.0603ZM106.173 101.203C106.172 101.858 105.913 102.485 105.453 102.947C104.992 103.41 104.368 103.67 103.717 103.671H39.2307C38.5798 103.67 37.9558 103.41 37.4955 102.947C37.0353 102.485 36.7764 101.858 36.7756 101.203V25.857C36.7764 25.2028 37.0353 24.5756 37.4955 24.113C37.9558 23.6504 38.5798 23.3901 39.2307 23.3893H103.717C104.368 23.3901 104.992 23.6504 105.453 24.113C105.913 24.5756 106.172 25.2028 106.173 25.857V101.203Z" fill="#3F3D56"/>
<path d="M86.5321 30.2988H56.4164C56.0259 30.2984 55.6514 30.1423 55.3753 29.8647C55.0991 29.5871 54.9438 29.2108 54.9434 28.8182V21.5797C54.9438 21.1872 55.0991 20.8108 55.3753 20.5333C55.6515 20.2557 56.0259 20.0996 56.4164 20.0991H86.5321C86.9226 20.0996 87.297 20.2557 87.5732 20.5333C87.8493 20.8108 88.0047 21.1872 88.0051 21.5797V28.8182C88.0047 29.2108 87.8494 29.5871 87.5732 29.8647C87.297 30.1423 86.9226 30.2984 86.5321 30.2988Z" fill="#7052CC"/>
<path d="M71.4741 20.5927C73.282 20.5927 74.7476 19.1196 74.7476 17.3024C74.7476 15.4853 73.282 14.0122 71.4741 14.0122C69.6663 14.0122 68.2007 15.4853 68.2007 17.3024C68.2007 19.1196 69.6663 20.5927 71.4741 20.5927Z" fill="#7052CC"/>
<path d="M71.4743 19.3065C72.5755 19.3065 73.4681 18.4092 73.4681 17.3024C73.4681 16.1956 72.5755 15.2983 71.4743 15.2983C70.3731 15.2983 69.4805 16.1956 69.4805 17.3024C69.4805 18.4092 70.3731 19.3065 71.4743 19.3065Z" fill="white"/>
</g>
<defs>
<clipPath id="clip0_26_2593">
<rect width="106" height="104" fill="white" transform="translate(0.5)"/>
</clipPath>
</defs>
</svg>
